Coordinates
version=1
nRows=34
nColumns=38
inDegrees=no

Units are S.I. units (second, meters, Newtons, ...)
If the header above contains a line with 'inDegrees', this indicates whether rotational values are in degrees (yes) or radians (no).

endheader
time	pelvis_tilt	pelvis_list	pelvis_rotation	pelvis_tx	pelvis_ty	pelvis_tz	hip_flexion_r	hip_adduction_r	hip_rotation_r	knee_angle_r	ankle_angle_r	subtalar_angle_r	mtp_angle_r	hip_flexion_l	hip_adduction_l	hip_rotation_l	knee_angle_l	ankle_angle_l	subtalar_angle_l	mtp_angle_l	lumbar_extension	lumbar_bending	lumbar_rotation	arm_flex_r	arm_add_r	arm_rot_r	elbow_flex_r	pro_sup_r	wrist_flex_r	wrist_dev_r	arm_flex_l	arm_add_l	arm_rot_l	elbow_flex_l	pro_sup_l	wrist_flex_l	wrist_dev_l
44.21	0.343405	1.48062	1.30778	0.691011	0.195365	1.05799	0.1833	-0.0243895	-0.00583939	0.247789	-0.276496	0	0	0.12985	-0.108229	-0.11664	0.288492	-0.292211	0	0	-0.29895	0.0543447	-0.0546997	0.486348	-0.509004	1.03547	0.68432	0.631838	0	0	0.10853	-0.300904	0.149698	0.570651	1.1899	0	0
44.22	0.343037	1.48118	1.30896	0.691084	0.195289	1.058	0.184278	-0.0241322	-0.00568848	0.251302	-0.276027	0	0	0.129949	-0.108328	-0.117188	0.289334	-0.292287	0	0	-0.300424	0.0539974	-0.0549288	0.483045	-0.508728	1.03668	0.682039	0.62901	0	0	0.107814	-0.299306	0.147147	0.568346	1.19317	0	0
44.23	0.338339	1.48082	1.31367	0.691149	0.195178	1.05792	0.18551	-0.0240737	-0.00470252	0.252448	-0.27538	0	0	0.130824	-0.10822	-0.118378	0.289853	-0.292318	0	0	-0.301089	0.0534362	-0.0545868	0.479881	-0.508654	1.03837	0.679734	0.626035	0	0	0.106973	-0.297607	0.144916	0.566091	1.19624	0	0
44.24	0.330029	1.47973	1.32129	0.691224	0.195115	1.05775	0.187423	-0.0243757	-0.00361607	0.252969	-0.274899	0	0	0.132141	-0.108044	-0.120658	0.289956	-0.29243	0	0	-0.300839	0.0526565	-0.0536871	0.476589	-0.508821	1.0408	0.67747	0.622651	0	0	0.105971	-0.29568	0.142597	0.563594	1.19969	0	0
44.25	0.323282	1.47879	1.32795	0.69131	0.194916	1.05755	0.189321	-0.0243559	-0.00317607	0.254239	-0.274282	0	0	0.133725	-0.107932	-0.121782	0.290436	-0.292532	0	0	-0.300806	0.0520525	-0.0532411	0.473548	-0.508993	1.04367	0.675391	0.619051	0	0	0.105278	-0.294191	0.140879	0.561326	1.20305	0	0
44.26	0.318947	1.47789	1.33254	0.691421	0.194633	1.05737	0.191427	-0.0237739	-0.00289232	0.256599	-0.272884	0	0	0.13553	-0.108011	-0.121815	0.291237	-0.292534	0	0	-0.300762	0.0516693	-0.0531076	0.471164	-0.508953	1.04816	0.67289	0.613717	0	0	0.104719	-0.292915	0.139241	0.559071	1.20668	0	0
44.27	0.319476	1.47785	1.33217	0.691464	0.194202	1.05729	0.193692	-0.0238213	-0.00254695	0.260239	-0.269544	0	0	0.136455	-0.108242	-0.121736	0.292133	-0.292198	0	0	-0.300803	0.0528754	-0.0575228	0.482511	-0.509138	1.08769	0.668393	0.569468	0	0	0.101037	-0.291622	0.133234	0.556937	1.21015	0	0
44.28	0.315696	1.47708	1.33594	0.691515	0.193788	1.05721	0.196325	-0.0237048	-0.00132751	0.262981	-0.269345	0	0	0.137878	-0.108104	-0.121117	0.292171	-0.292285	0	0	-0.301742	0.0525707	-0.057452	0.480673	-0.509058	1.09042	0.665962	0.565124	0	0	0.100731	-0.291411	0.135051	0.555745	1.20905	0	0
44.29	0.314207	1.4762	1.33747	0.69153	0.193294	1.05713	0.199461	-0.0242294	-0.000334013	0.265316	-0.270287	0	0	0.139558	-0.108232	-0.121063	0.292468	-0.291991	0	0	-0.302953	0.0526356	-0.0572241	0.479276	-0.509422	1.09421	0.663914	0.562992	0	0	0.100773	-0.291118	0.137144	0.554568	1.20747	0	0
44.3	0.103809	1.45328	1.544	0.693627	0.193047	1.051	0.268851	-0.031974	0.0253241	0.284644	-0.290079	0	0	0.170521	-0.0909512	-0.125367	0.302588	-0.283909	0	0	-0.262189	0.0288936	-0.061389	0.468247	-0.500458	1.11075	0.655369	0.556646	0	0	0.085771	-0.300826	0.144677	0.55723	1.20232	0	0
44.31	0.308382	1.47427	1.34377	0.691564	0.192216	1.05684	0.206573	-0.0254455	0.000351335	0.272821	-0.265536	0	0	0.143472	-0.10835	-0.121731	0.293443	-0.292683	0	0	-0.304746	0.0528835	-0.0582372	0.479797	-0.509948	1.11155	0.65939	0.55685	0	0	0.0998578	-0.290193	0.137223	0.552759	1.20816	0	0
44.32	0.301454	1.47254	1.35083	0.691634	0.191636	1.05656	0.211331	-0.0254926	0.00102228	0.277296	-0.26412	0	0	0.146617	-0.108264	-0.122065	0.29457	-0.292451	0	0	-0.304807	0.05247	-0.0581955	0.478846	-0.510144	1.11666	0.657345	0.554313	0	0	0.0996568	-0.290263	0.138807	0.552143	1.20696	0	0
44.33	0.295403	1.47091	1.35687	0.691727	0.19097	1.05628	0.215784	-0.0250407	0.00153866	0.280673	-0.263297	0	0	0.149759	-0.108237	-0.12244	0.295753	-0.292259	0	0	-0.3053	0.0520839	-0.0579961	0.477607	-0.510444	1.11992	0.655917	0.551701	0	0	0.0995734	-0.290458	0.140116	0.55191	1.2062	0	0
44.34	0.292566	1.46927	1.35968	0.691793	0.190209	1.05604	0.219998	-0.0248566	0.00180095	0.283436	-0.262746	0	0	0.152979	-0.108478	-0.122494	0.296843	-0.292095	0	0	-0.306212	0.0521272	-0.0577682	0.476812	-0.510897	1.12293	0.654627	0.549966	0	0	0.0998198	-0.290495	0.141059	0.551596	1.20549	0	0
44.35	0.29026	1.467	1.36236	0.691753	0.189445	1.05575	0.225015	-0.0253136	0.00110575	0.286829	-0.261974	0	0	0.157042	-0.108754	-0.121971	0.298077	-0.291821	0	0	-0.306642	0.0524911	-0.0579208	0.476269	-0.511402	1.12643	0.653114	0.548871	0	0	0.100111	-0.290425	0.142084	0.55107	1.20473	0	0
44.36	0.283409	1.46308	1.37115	0.691425	0.188757	1.05521	0.232217	-0.026369	-0.00204354	0.291606	-0.260537	0	0	0.163459	-0.108385	-0.119633	0.299835	-0.291055	0	0	-0.304857	0.0531326	-0.0597509	0.475297	-0.511874	1.13044	0.651372	0.548087	0	0	0.099803	-0.290437	0.143559	0.550375	1.20363	0	0
44.37	0.27565	1.45855	1.38101	0.691062	0.188053	1.05456	0.240614	-0.027339	-0.00522501	0.297516	-0.259071	0	0	0.171419	-0.108079	-0.118103	0.303534	-0.289812	0	0	-0.302529	0.0537682	-0.0617386	0.474697	-0.512633	1.13583	0.649821	0.547316	0	0	0.0992625	-0.290826	0.145853	0.550209	1.20218	0	0
44.38	0.275699	1.45779	1.3788	0.691584	0.186837	1.05441	0.24523	-0.0258917	-0.000353943	0.301173	-0.258694	0	0	0.174693	-0.109112	-0.119876	0.306658	-0.289313	0	0	-0.305455	0.0532049	-0.0596154	0.476253	-0.512796	1.13988	0.64814	0.546835	0	0	0.100672	-0.291771	0.147499	0.550409	1.20129	0	0
44.39	0.270751	1.45471	1.38374	0.691595	0.185797	1.05394	0.252429	-0.0258927	0.000249267	0.306019	-0.257623	0	0	0.180914	-0.109204	-0.119142	0.310051	-0.288162	0	0	-0.305464	0.0533146	-0.0596478	0.476951	-0.51334	1.14445	0.646329	0.545106	0	0	0.101504	-0.292397	0.149984	0.549886	1.19962	0	0
44.4	0.259602	1.44784	1.39858	0.690861	0.185074	1.05293	0.26342	-0.0279732	-0.00612815	0.311965	-0.255811	0	0	0.191933	-0.107831	-0.11403	0.313845	-0.286167	0	0	-0.300527	0.0544915	-0.0633053	0.475278	-0.513923	1.14771	0.644207	0.540154	0	0	0.100986	-0.292722	0.153667	0.548717	1.19604	0	0
44.41	0.251447	1.44247	1.40847	0.690537	0.184065	1.0521	0.273896	-0.0291355	-0.00901806	0.319012	-0.254694	0	0	0.201373	-0.107254	-0.111663	0.318042	-0.284549	0	0	-0.297869	0.0551167	-0.0652517	0.475528	-0.514363	1.15305	0.641882	0.535102	0	0	0.101193	-0.293825	0.158523	0.548347	1.19137	0	0
44.42	0.245733	1.43876	1.41429	0.690574	0.182775	1.05147	0.283353	-0.0293697	-0.00864917	0.326333	-0.25489	0	0	0.20908	-0.107364	-0.111169	0.322435	-0.283417	0	0	-0.297913	0.0551901	-0.0655657	0.477277	-0.514667	1.15882	0.639516	0.530282	0	0	0.102442	-0.295489	0.163756	0.548605	1.18696	0	0
44.43	0.245797	1.43713	1.41485	0.690579	0.181376	1.05111	0.289372	-0.0290749	-0.00687654	0.33097	-0.255914	0	0	0.21421	-0.107742	-0.10969	0.325575	-0.282758	0	0	-0.30067	0.0557787	-0.065974	0.478805	-0.514967	1.16189	0.637483	0.526442	0	0	0.104656	-0.296809	0.167673	0.548665	1.18403	0	0
44.44	0.116915	1.41641	1.54356	0.692284	0.180238	1.04526	0.349124	-0.0313893	0.0213243	0.337994	-0.280971	0	0	0.24592	-0.0932874	-0.111705	0.341068	-0.272275	0	0	-0.265622	0.0357426	-0.0733633	0.471429	-0.506264	1.17937	0.629158	0.51232	0	0	0.0929473	-0.309938	0.185935	0.552491	1.16793	0	0
44.45	0.117782	1.41312	1.54372	0.692227	0.17878	1.0446	0.357748	-0.0312298	0.0222348	0.344882	-0.279375	0	0	0.253988	-0.0937702	-0.110504	0.346419	-0.271018	0	0	-0.266983	0.036188	-0.0740427	0.472698	-0.506446	1.18273	0.626755	0.510822	0	0	0.0951751	-0.311254	0.189816	0.552459	1.16515	0	0
44.46	0.116963	1.40833	1.54456	0.692235	0.177322	1.04375	0.368566	-0.0312949	0.0221339	0.352458	-0.277974	0	0	0.263517	-0.0942671	-0.110509	0.351689	-0.269773	0	0	-0.2673	0.036049	-0.0741004	0.473617	-0.506257	1.18358	0.623749	0.507403	0	0	0.0969049	-0.312716	0.193508	0.552925	1.1625	0	0
44.47	0.118516	1.40407	1.54442	0.692205	0.175595	1.04295	0.37884	-0.0314614	0.0204508	0.359907	-0.276507	0	0	0.273569	-0.094786	-0.10808	0.357983	-0.268408	0	0	-0.268789	0.036506	-0.0752237	0.474959	-0.505893	1.18404	0.621068	0.504007	0	0	0.09948	-0.31463	0.197713	0.553679	1.15965	0	0
44.48	0.119825	1.39997	1.54446	0.692157	0.173921	1.04212	0.38861	-0.0313409	0.0214905	0.366935	-0.274692	0	0	0.283512	-0.095438	-0.10688	0.364774	-0.266961	0	0	-0.270668	0.0368822	-0.0760504	0.476224	-0.505802	1.18533	0.618794	0.503209	0	0	0.102349	-0.316401	0.202079	0.554263	1.15668	0	0
44.49	0.11951	1.39681	1.54454	0.692295	0.172169	1.04137	0.398074	-0.0307269	0.0247873	0.374578	-0.273384	0	0	0.291479	-0.0962775	-0.107746	0.369985	-0.266023	0	0	-0.274096	0.0366604	-0.0754461	0.478001	-0.505715	1.18596	0.616554	0.503001	0	0	0.105699	-0.317988	0.205645	0.554953	1.15443	0	0
44.5	0.117994	1.3942	1.54438	0.692685	0.170215	1.04066	0.407941	-0.0295236	0.0297615	0.383148	-0.272264	0	0	0.29838	-0.0973327	-0.109557	0.374263	-0.265143	0	0	-0.278707	0.035877	-0.0736633	0.480421	-0.505325	1.18577	0.614213	0.503108	0	0	0.109665	-0.319726	0.209003	0.555641	1.15229	0	0
44.51	0.11659	1.38994	1.54561	0.692844	0.168283	1.0397	0.419556	-0.0292004	0.0321982	0.392209	-0.270827	0	0	0.307651	-0.0978292	-0.109452	0.379339	-0.263877	0	0	-0.281795	0.0353268	-0.0729073	0.481639	-0.504805	1.18355	0.611702	0.504803	0	0	0.113702	-0.321424	0.212981	0.556173	1.14985	0	0
44.52	0.114298	1.38398	1.54884	0.692839	0.166367	1.03847	0.433009	-0.0297727	0.0326767	0.401638	-0.268808	0	0	0.319445	-0.0977928	-0.108294	0.385586	-0.26205	0	0	-0.283247	0.03468	-0.0728945	0.481467	-0.504027	1.17831	0.608923	0.508614	0	0	0.117728	-0.323298	0.217982	0.556638	1.1465	0	0
44.53	0.111704	1.37769	1.55255	0.692831	0.164382	1.03714	0.446993	-0.0305188	0.0327153	0.411319	-0.266717	0	0	0.332011	-0.0978788	-0.107973	0.392504	-0.260259	0	0	-0.284668	0.033902	-0.0729363	0.481071	-0.503053	1.17207	0.606068	0.514625	0	0	0.122011	-0.325306	0.223375	0.557134	1.14259	0	0
44.54	0.110156	1.37418	1.55497	0.69284	0.162318	1.03605	0.457867	-0.0310386	0.0324696	0.420348	-0.26781	0	0	0.341197	-0.0980951	-0.107375	0.398343	-0.260025	0	0	-0.289214	0.0345865	-0.0788177	0.496158	-0.500969	1.20521	0.602222	0.485658	0	0	0.120523	-0.324161	0.205495	0.559386	1.15723	0	0
